<?xml version="1.0" standalone="no"?>
<!DOCTYPE svg PUBLIC "-//W3C//DTD SVG 20010904//EN"
 "http://www.w3.org/TR/2001/REC-SVG-20010904/DTD/svg10.dtd">
<svg version="1.0" xmlns="http://www.w3.org/2000/svg"
 width="512.000000pt" height="512.000000pt" viewBox="0 0 512.000000 512.000000"
 preserveAspectRatio="xMidYMid meet">
<metadata>
Created by potrace 1.14, written by Peter Selinger 2001-2017
</metadata>
<g transform="translate(0.000000,512.000000) scale(0.100000,-0.100000)"
fill="#000000" stroke="none">
<path d="M2718 4732 c-19 -17 -40 -48 -47 -69 -24 -71 21 -190 109 -293 21
-24 30 -29 30 -17 0 9 13 31 29 49 55 64 85 136 86 210 0 65 -2 69 -37 104
-29 30 -45 38 -85 41 -45 5 -53 2 -85 -25z m130 -16 c43 -22 67 -81 51 -124
-20 -51 -48 -72 -100 -72 -40 0 -51 4 -73 31 -35 41 -42 74 -23 113 15 32 66
65 100 66 10 0 30 -6 45 -14z"/>
<path d="M3571 4048 c-5 -13 -21 -50 -36 -83 -14 -33 -35 -78 -44 -100 -10
-22 -46 -101 -80 -176 -33 -74 -61 -141 -61 -147 0 -27 -31 -23 -65 7 -31 27
-43 31 -94 31 -55 0 -61 -3 -89 -35 -17 -19 -34 -50 -37 -69 -9 -44 10 -130
35 -166 11 -16 20 -32 20 -37 0 -6 9 -18 21 -29 15 -13 19 -26 15 -46 -5 -25
-4 -27 18 -18 13 5 73 14 132 19 60 6 143 16 184 21 41 5 138 17 215 25 77 9
164 20 194 25 30 6 68 10 85 10 59 0 62 12 24 76 -47 79 -87 147 -119 203 -15
25 -35 60 -45 78 -11 17 -34 57 -53 90 -77 134 -204 343 -207 343 -3 0 -8 -10
-13 -22z m-320 -511 c43 -29 61 -65 53 -106 -8 -38 -66 -91 -100 -91 -92 0
-146 119 -81 177 53 48 80 53 128 20z"/>
<path d="M2220 3489 c0 -5 5 -7 10 -4 6 3 10 8 10 11 0 2 -4 4 -10 4 -5 0 -10
-5 -10 -11z"/>
<path d="M5005 3460 c-3 -6 -12 -20 -18 -33 -7 -12 -46 -74 -88 -137 -41 -63
-93 -143 -115 -178 -60 -97 -114 -182 -172 -274 -29 -45 -59 -92 -65 -102 -7
-11 -39 -61 -72 -112 -33 -51 -67 -106 -77 -123 -18 -33 -31 -38 -203 -71
-196 -38 -219 -42 -270 -56 -27 -7 -77 -16 -110 -19 -33 -4 -73 -10 -90 -15
-16 -4 -55 -13 -85 -19 -30 -7 -115 -25 -189 -41 -73 -17 -143 -30 -155 -30
-20 0 -88 84 -201 248 -20 29 -42 61 -50 70 -17 20 -54 72 -90 125 l-25 37
-364 0 c-344 0 -367 1 -412 20 -44 19 -50 20 -86 5 -21 -8 -47 -15 -58 -15
-28 0 -26 34 2 48 13 6 17 11 10 11 -13 1 -57 17 -237 88 -49 20 -110 41 -135
48 -25 8 -59 19 -76 26 -31 12 -34 11 -99 -41 -37 -29 -80 -63 -96 -74 -30
-22 -175 -137 -328 -262 -48 -39 -97 -76 -109 -83 -11 -6 -47 -34 -79 -62 -32
-28 -75 -63 -97 -77 -40 -27 -32 -44 10 -21 18 9 27 10 36 1 18 -18 2 -39 -46
-55 -44 -15 -47 -15 -59 4 -17 27 -27 24 -27 -10 0 -60 -25 -77 -70 -49 -16
10 -24 10 -40 0 -11 -6 -32 -12 -47 -12 -16 0 -39 -6 -53 -13 -14 -7 -52 -21
-85 -31 -33 -10 -80 -26 -105 -35 -25 -10 -98 -35 -162 -56 l-118 -37 0 -1024
0 -1024 2560 0 2560 0 0 1695 0 1694 -42 40 c-44 41 -62 49 -73 31z m-3051
-716 c9 -22 -10 -42 -48 -52 -39 -11 -56 -5 -56 20 0 12 12 24 33 33 43 19 64
18 71 -1z m-146 -61 c3 -18 -5 -24 -45 -36 -54 -15 -63 -14 -63 12 0 12 14 24
38 34 48 20 66 17 70 -10z m-138 -51 c0 -11 -15 -24 -40 -35 -45 -19 -70 -22
-70 -7 0 6 -1 13 -1 17 -3 13 55 42 84 42 19 1 27 -4 27 -17z m-140 -53 c0
-12 -13 -24 -36 -34 -54 -22 -74 -20 -74 9 0 20 8 27 43 39 49 16 67 13 67
-14z m-152 -50 c3 -23 -2 -27 -45 -36 -48 -11 -67 -4 -57 21 5 13 74 45 89 42
6 -2 11 -14 13 -27z m-138 -50 c0 -21 -51 -49 -90 -49 -43 0 -16 44 37 60 44
13 53 11 53 -11z m-143 -45 c9 -23 -19 -45 -64 -51 -31 -4 -41 -2 -46 11 -6
16 1 23 43 43 36 16 60 15 67 -3z m-139 -56 c2 -12 -8 -22 -35 -33 -73 -31
-110 1 -43 37 41 22 73 20 78 -4z m-202 -175 c47 -31 59 -63 22 -63 -33 1 -93
53 -85 74 8 21 12 21 63 -11z m140 -84 c39 -24 46 -59 13 -59 -30 0 -79 38
-79 61 0 25 24 24 66 -2z m123 -75 c32 -16 55 -46 44 -58 -22 -22 -103 21
-103 55 0 23 17 24 59 3z m131 -81 c41 -28 55 -63 25 -63 -23 0 -84 32 -90 48
-13 34 25 43 65 15z m145 -89 c27 -18 33 -51 11 -60 -20 -8 -86 37 -86 59 0
22 42 23 75 1z m118 -76 c49 -34 59 -54 33 -64 -22 -8 -96 43 -96 66 0 26 24
25 63 -2z m134 -84 c55 -42 39 -78 -22 -49 -37 17 -55 42 -48 63 7 19 33 14
70 -14z m123 -79 c25 -16 40 -33 40 -45 0 -24 -11 -25 -49 -6 -36 19 -55 42
-47 61 7 20 10 19 56 -10z m137 -80 c45 -22 56 -65 17 -65 -17 0 -94 49 -94
60 0 24 35 26 77 5z m134 -86 c31 -22 39 -59 14 -59 -17 0 -95 49 -95 60 0 26
43 26 81 -1z m136 -85 c38 -29 41 -40 12 -49 -20 -7 -99 36 -99 53 0 30 45 28
87 -4z m118 -71 c35 -17 49 -53 25 -68 -10 -6 -100 51 -100 64 0 25 27 27 75
4z m145 -93 c37 -35 30 -57 -14 -46 -35 9 -81 50 -72 64 13 21 53 13 86 -18z
m121 -72 c44 -25 48 -51 9 -56 -16 -2 -37 8 -60 27 -29 25 -33 32 -20 41 21
14 27 13 71 -12z m122 -78 c14 -11 30 -20 36 -20 17 0 13 -28 -6 -39 -26 -14
-93 27 -93 57 0 28 28 29 63 2z m147 -89 c29 -21 32 -39 9 -54 -21 -13 -89 37
-89 65 0 17 5 19 28 14 15 -4 38 -15 52 -25z m676 -63 c44 -34 53 -50 54 -91
0 -50 -52 -107 -97 -107 -52 0 -91 27 -104 70 -18 58 -3 100 46 127 50 28 65
28 101 1z m-565 -8 c43 -23 60 -47 39 -60 -25 -15 -100 31 -100 62 0 23 12 23
61 -2z m138 -87 c44 -28 51 -56 16 -60 -28 -4 -90 50 -82 71 9 22 18 20 66
-11z m141 -90 c22 -21 28 -32 20 -43 -8 -13 -15 -12 -55 10 -27 15 -45 32 -45
42 0 28 45 22 80 -9z m111 -66 c37 -25 52 -67 23 -67 -27 0 -84 40 -84 59 0
37 15 39 61 8z m120 -107 c24 -20 24 -20 4 -35 -30 -23 -49 -15 -51 23 -2 37
13 41 47 12z m-63 -76 c4 -26 -59 -87 -81 -78 -26 10 -20 28 20 68 40 39 56
41 61 10z m-110 -112 c4 -15 -78 -93 -90 -86 -16 10 -7 46 20 74 27 30 62 36
70 12z m-111 -109 c5 -14 -66 -83 -85 -83 -26 0 -24 31 4 65 29 35 73 44 81
18z m-120 -110 c4 -11 -5 -27 -30 -50 -41 -37 -55 -41 -64 -17 -3 9 7 28 28
50 36 37 56 43 66 17z"/>
<path d="M2620 3356 c0 -2 7 -6 15 -10 8 -3 15 -1 15 4 0 6 -7 10 -15 10 -8 0
-15 -2 -15 -4z"/>
<path d="M3030 3226 c0 -2 9 -6 20 -9 11 -3 18 -1 14 4 -5 9 -34 13 -34 5z"/>
<path d="M576 2659 c-64 -17 -103 -87 -92 -163 9 -56 57 -152 101 -200 l36
-40 25 25 c25 25 48 63 80 129 10 22 17 62 17 107 1 69 0 75 -30 104 -34 34
-91 50 -137 38z m85 -34 c35 -18 69 -70 69 -104 0 -30 -70 -101 -99 -101 -74
0 -132 70 -111 134 15 45 44 68 108 85 2 1 16 -6 33 -14z"/>
</g>
</svg>
